<svg width="16" height="16" viewBox="0 0 16 16" fill="none" xmlns="http://www.w3.org/2000/svg">
<path d="M10.5 8C9.8575 8 9.23625 7.71313 8.75 7.1925C8.27719 6.68469 7.98844 6.0075 7.9375 5.28625C7.88312 4.51688 8.11781 3.80938 8.59812 3.29375C9.07844 2.77813 9.75 2.5 10.5 2.5C11.2447 2.5 11.9181 2.78312 12.3969 3.2975C12.8803 3.81687 13.1156 4.52312 13.0613 5.28594C13.0091 6.00812 12.7206 6.685 12.2488 7.19219C11.7638 7.71312 11.1428 8 10.5 8ZM14.6197 13.5H6.38062C6.24816 13.5007 6.11729 13.471 5.99811 13.4132C5.87892 13.3554 5.77458 13.271 5.69312 13.1666C5.60672 13.0533 5.54705 12.922 5.51858 12.7824C5.49012 12.6429 5.49359 12.4987 5.52875 12.3606C5.79187 11.3041 6.44375 10.4278 7.41375 9.82687C8.27469 9.29375 9.37062 9 10.5 9C11.6516 9 12.7188 9.28125 13.5847 9.81406C14.5569 10.4119 15.2097 11.2931 15.4716 12.3625C15.5063 12.5006 15.5094 12.6448 15.4806 12.7843C15.4518 12.9238 15.3919 13.055 15.3053 13.1681C15.2239 13.2721 15.1198 13.3561 15.001 13.4136C14.8822 13.4711 14.7517 13.5007 14.6197 13.5ZM4.59375 8.125C3.49406 8.125 2.52718 7.1025 2.4375 5.84594C2.39312 5.20219 2.59375 4.60687 3 4.17031C3.40187 3.73812 3.96875 3.5 4.59375 3.5C5.21875 3.5 5.78125 3.73938 6.18531 4.17406C6.59469 4.61406 6.79468 5.20812 6.74781 5.84656C6.65812 7.10281 5.69156 8.125 4.59375 8.125ZM6.64562 9.10781C6.09593 8.83906 5.3825 8.70469 4.59406 8.70469C3.67343 8.70469 2.77937 8.94469 2.07625 9.38031C1.27906 9.875 0.742808 10.5953 0.526245 11.465C0.494553 11.5901 0.491555 11.7207 0.517477 11.8471C0.543398 11.9736 0.597567 12.0925 0.675933 12.195C0.750291 12.2905 0.845553 12.3676 0.954391 12.4205C1.06323 12.4733 1.18274 12.5006 1.30375 12.5H4.7725C4.83104 12.5 4.88773 12.4794 4.93267 12.4419C4.97762 12.4044 5.00797 12.3523 5.01843 12.2947C5.02187 12.275 5.02625 12.2553 5.03125 12.2359C5.29625 11.1716 5.91718 10.2722 6.83469 9.61656C6.86843 9.59224 6.89557 9.55988 6.91365 9.52241C6.93173 9.48495 6.94018 9.44356 6.93822 9.40201C6.93627 9.36046 6.92397 9.32005 6.90246 9.28445C6.88094 9.24884 6.85088 9.21917 6.815 9.19812C6.76594 9.16937 6.70969 9.13906 6.64562 9.10781Z" fill="#34A6D7"/>
</svg>
